<?xml version="1.0" encoding="utf-8"?>
<!-- Generator: Adobe Illustrator 27.5.0, SVG Export Plug-In . SVG Version: 6.00 Build 0)  -->
<svg version="1.1" xmlns="http://www.w3.org/2000/svg" xmlns:xlink="http://www.w3.org/1999/xlink" x="0px" y="0px"
	 viewBox="0 0 3710 3710" style="enable-background:new 0 0 3710 3710;" xml:space="preserve">
<g id="Background">
	<g>
		<g>
			<rect style="fill:#FFFFFF;" width="3710" height="3710"/>
		</g>
	</g>
</g>
<g id="Illustration">
	<g>
		<linearGradient id="SVGID_1_" gradientUnits="userSpaceOnUse" x1="3581.7498" y1="4028.3003" x2="1131.9363" y2="985.7855">
			<stop  offset="0" style="stop-color:#DAE3FE"/>
			<stop  offset="1" style="stop-color:#E9EFFD"/>
		</linearGradient>
		<path style="fill:url(#SVGID_1_);" d="M2907.791,2828.442c-56.271,59.24-109.514,97.443-151.581,127.626
			c-494.484,354.798-1079.589,251.376-1203.941,226.119c-183.628-37.296-538.577-109.388-795.199-411.17
			c-388.247-456.571-327.791-1175.885-26.641-1650.715c55.085-86.854,346.061-568.916,937.469-646.224
			c357.913-46.786,775.125,47.576,1077.259,300.703C3379.362,1306.121,3334.214,2379.518,2907.791,2828.442z"/>
		<g>
			
				<linearGradient id="SVGID_00000033335809150848766800000001047052039043014042_" gradientUnits="userSpaceOnUse" x1="1181.741" y1="1455.2035" x2="2197.8098" y2="1455.2035">
				<stop  offset="0" style="stop-color:#FEBBBA"/>
				<stop  offset="1" style="stop-color:#FF928E"/>
			</linearGradient>
			<path style="fill:url(#SVGID_00000033335809150848766800000001047052039043014042_);" d="M1779.982,2416.065
				c0,0-224.693-1211.662-780.397-1894.042c-37.356-45.871-110.602-32.514-129.014,23.705
				C747.462,921.653,490.303,2067.664,1779.982,2416.065z"/>
			<path style="opacity:0.5;fill:#FFFFFF;" d="M1664.472,2332.957c2.783,3.002-1.311,7.331-4.47,4.729
				c-116.528-95.92-562.396-560.983-691.645-1450.363c-0.415-2.857,3.8-3.73,4.459-0.92
				C1021.469,1093.485,1224.406,1858.228,1664.472,2332.957z"/>
		</g>
		<g>
			
				<linearGradient id="SVGID_00000021118659300653458380000003970685513364178837_" gradientUnits="userSpaceOnUse" x1="3092.7019" y1="-203.7502" x2="2787.6211" y2="141.1233">
				<stop  offset="0" style="stop-color:#4F52FF"/>
				<stop  offset="1" style="stop-color:#4042E2"/>
			</linearGradient>
			<path style="fill:url(#SVGID_00000021118659300653458380000003970685513364178837_);" d="M1134.051,3208.66H987.61V1190.583
				c0-121.872,99.15-221.02,221.022-221.02h152.328c41.123,0,74.581-33.457,74.581-74.581V471.276h146.441v423.706
				c0,121.872-99.15,221.022-221.022,221.022h-152.328c-41.123,0-74.581,33.456-74.581,74.579V3208.66z"/>
			
				<linearGradient id="SVGID_00000017480543230980351490000006673992062021840039_" gradientUnits="userSpaceOnUse" x1="1582.1243" y1="701.1759" x2="1986.6866" y2="-101.3184">
				<stop  offset="0" style="stop-color:#4F52FF"/>
				<stop  offset="1" style="stop-color:#4042E2"/>
			</linearGradient>
			
				<rect x="1410.619" y="831.167" style="fill:url(#SVGID_00000017480543230980351490000006673992062021840039_);" width="195.108" height="33.397"/>
			
				<linearGradient id="SVGID_00000058548404077600317570000012960820548954617766_" gradientUnits="userSpaceOnUse" x1="6504.4497" y1="-14280.5322" x2="6909.0117" y2="-15083.0264" gradientTransform="matrix(0 -1 1 0 -1855.4839 -1231.4839)">
				<stop  offset="0" style="stop-color:#4F52FF"/>
				<stop  offset="1" style="stop-color:#4042E2"/>
			</linearGradient>
			<polygon style="fill:url(#SVGID_00000058548404077600317570000012960820548954617766_);" points="1291.128,943.662 
				1291.128,1138.77 1257.731,1138.77 1257.731,943.662 			"/>
			
				<linearGradient id="SVGID_00000008136193439104445760000018114027859653779381_" gradientUnits="userSpaceOnUse" x1="1587.01" y1="-12367.8896" x2="1991.5724" y2="-13170.3838" gradientTransform="matrix(-1 0 0 -1 -3254.9575 610.8488)">
				<stop  offset="0" style="stop-color:#4F52FF"/>
				<stop  offset="1" style="stop-color:#4042E2"/>
			</linearGradient>
			<polygon style="fill:url(#SVGID_00000008136193439104445760000018114027859653779381_);" points="962.432,1254.862 
				1157.541,1254.862 1157.541,1288.259 962.432,1288.259 			"/>
		</g>
		<g>
			
				<linearGradient id="SVGID_00000166649702841405459790000013350946185087173046_" gradientUnits="userSpaceOnUse" x1="587.4565" y1="1991.9263" x2="1459.0178" y2="1991.9263">
				<stop  offset="0" style="stop-color:#FF928E"/>
				<stop  offset="1" style="stop-color:#FE7062"/>
			</linearGradient>
			<path style="fill:url(#SVGID_00000166649702841405459790000013350946185087173046_);" d="M1459.018,2798.985
				c0,0-202.797-1020.976-679.486-1591.354c-32.044-38.342-93.765-26.274-108.712,21.408
				C570.878,1547.874,365.991,2518.577,1459.018,2798.985z"/>
			<path style="opacity:0.5;fill:#FFFFFF;" d="M1360.563,2730.031c2.383,2.506-1.028,6.206-3.726,4.043
				c-99.451-79.763-481.035-467.773-599.757-1217.569c-0.381-2.408,3.169-3.191,3.756-0.824
				C804.155,1690.062,983.775,2333.796,1360.563,2730.031z"/>
		</g>
		<g>
			<path style="fill:#7D97F4;" d="M722.784,2632.643l-87.347-7.002c-75.187,0-136.138-60.951-136.138-136.138v-419.207h175.298
				L722.784,2632.643z"/>
			<path style="fill:#91B3FA;" d="M739.82,2588.972l-36.339,2.285l-31.586-502.365c-0.171-2.712,1.89-5.049,4.602-5.219l27.828-1.75
				c1.988-0.125,3.701,1.385,3.826,3.373L739.82,2588.972z"/>
			<path style="fill:#7D97F4;" d="M959.839,2865.208l-378.433-138.849c47.188,68.873,73.24,206.568,96.054,354.809l0,0
				l-48.042,112.392c-1.807,6.455,3.045,12.852,9.747,12.852h268.174c6.65,0,11.493-6.303,9.781-12.729l-36.973-83.825
				c-10.026-22.731-13.178-47.939-8.815-72.397C883.363,2970.018,909.912,2910.906,959.839,2865.208z"/>
			<path style="fill:#7D97F4;" d="M525.68,2625.416c-6.031,0.103-9.754,6.615-6.802,11.875
				c87.93,156.703,224.116,231.897,387.4,231.897c163.921,0,297.47-109.781,303.187-247.025c0.191-4.59-3.501-8.406-8.095-8.327
				L525.68,2625.416z"/>
			<path style="fill:#91B3FA;" d="M1227.96,2625.641H713.735c-6.938,0-12.563-5.625-12.563-12.563v-45.665h513.151
				c7.531,0,13.637,6.105,13.637,13.637V2625.641z"/>
			<path style="fill:#7D97F4;" d="M674.367,2093.649H500.545c-8.826,0-15.981-7.155-15.981-15.981v-9.194
				c0-8.826,7.155-15.981,15.981-15.981h173.822c8.826,0,15.981,7.155,15.981,15.981v9.194
				C690.349,2086.494,683.194,2093.649,674.367,2093.649z"/>
		</g>
		<g>
			
				<linearGradient id="SVGID_00000145020494489004040620000005086668176081773973_" gradientUnits="userSpaceOnUse" x1="1249.9698" y1="2282.1875" x2="2771.3984" y2="2282.1875">
				<stop  offset="0" style="stop-color:#4F52FF"/>
				<stop  offset="1" style="stop-color:#4042E2"/>
			</linearGradient>
			<path style="fill:url(#SVGID_00000145020494489004040620000005086668176081773973_);" d="M1308.848,1433.01
				c-34.585,1.697-61.072,31.441-58.735,65.989l107.914,1594.88c2.197,32.475,29.181,57.695,61.731,57.695h1153.025
				c32.124,0,58.904-24.584,61.646-56.591l136.738-1596.064c2.963-34.586-23.094-64.807-57.734-67.037
				C2284.991,1404.294,1811.584,1408.336,1308.848,1433.01z"/>
			<path style="fill:#91B3FA;" d="M1353.828,1864.788c-4.883-57.294,40.305-106.497,97.807-106.497h1101.026
				c57.342,0,102.475,48.941,97.84,106.095l-80.2,989.056c-4.12,50.802-46.436,90-97.404,90.226l-936.176,4.156
				c-51.148,0.227-93.899-38.86-98.242-89.825L1353.828,1864.788z"/>
			<path style="fill:#7D97F4;" d="M2684.31,1701.424c-2.307,3.323-6.096,5.304-10.141,5.304H1317.483
				c-5.202,0-9.846-3.26-11.613-8.153l0,0c-2.907-8.048,3.056-16.541,11.613-16.541h1356.686
				C2684.137,1682.034,2689.997,1693.237,2684.31,1701.424L2684.31,1701.424z"/>
			
				<linearGradient id="SVGID_00000030463489700730721080000003641034876470282377_" gradientUnits="userSpaceOnUse" x1="1328.7576" y1="1563.0853" x2="1660.0455" y2="1563.0853">
				<stop  offset="0" style="stop-color:#09005D"/>
				<stop  offset="1" style="stop-color:#1A0F91"/>
			</linearGradient>
			<path style="fill:url(#SVGID_00000030463489700730721080000003641034876470282377_);" d="M1341.051,1486.203
				c-7.193,0.166-12.782,6.318-12.259,13.494l9.883,135.671c0.479,6.577,5.955,11.668,12.55,11.668h291.76
				c6.796,0,12.363-5.396,12.577-12.188l4.479-142.736c0.227-7.215-5.651-13.141-12.867-12.974L1341.051,1486.203z"/>
			
				<linearGradient id="SVGID_00000055700376566269161960000016790694399605374397_" gradientUnits="userSpaceOnUse" x1="2238.8103" y1="1586.2069" x2="2651.2783" y2="1586.2069">
				<stop  offset="0" style="stop-color:#09005D"/>
				<stop  offset="1" style="stop-color:#1A0F91"/>
			</linearGradient>
			<path style="fill:url(#SVGID_00000055700376566269161960000016790694399605374397_);" d="M2238.844,1545.94l5.249,89.427
				c0.479,6.577,5.955,11.668,12.55,11.668h372.94c6.796,0,12.364-5.396,12.577-12.188l9.113-96.493
				c0.226-7.215-5.65-13.141-12.867-12.974l-387.302,7.066C2243.911,1532.613,2238.321,1538.765,2238.844,1545.94z"/>
			
				<ellipse transform="matrix(0.7071 -0.7071 0.7071 0.7071 -569.6013 1753.6234)" style="fill:#BDD0FB;" cx="1832.01" cy="1564.381" rx="82.655" ry="82.655"/>
			<circle style="opacity:0.64;fill:#FFFFFF;" cx="1840.551" cy="1555.841" r="58.711"/>
			
				<ellipse transform="matrix(0.7071 -0.7071 0.7071 0.7071 -500.3836 1920.7297)" style="fill:#BDD0FB;" cx="2068.334" cy="1564.381" rx="82.655" ry="82.655"/>
			<circle style="opacity:0.64;fill:#FFFFFF;" cx="2076.875" cy="1555.841" r="58.711"/>
			<path style="fill:#BDD0FB;" d="M2327.071,1502.903c0,3.876-3.142,7.018-7.018,7.018h-74.226c-3.876,0-7.018-3.142-7.018-7.018
				v-23.343c0-3.876,3.142-7.018,7.018-7.018h74.225c3.876,0,7.018,3.142,7.018,7.018V1502.903z"/>
			<path style="fill:#BDD0FB;" d="M2427.021,1509.921h-74.226c-3.876,0-7.018-3.142-7.018-7.018v-23.343
				c0-3.876,3.142-7.018,7.018-7.018h74.226c3.876,0,7.018,3.142,7.018,7.018v23.343
				C2434.039,1506.779,2430.897,1509.921,2427.021,1509.921z"/>
			<path style="fill:#BDD0FB;" d="M2537.293,1509.921h-74.226c-3.876,0-7.018-3.142-7.018-7.018v-23.343
				c0-3.876,3.142-7.018,7.018-7.018h74.225c3.876,0,7.018,3.142,7.018,7.018v23.343
				C2544.31,1506.779,2541.168,1509.921,2537.293,1509.921z"/>
			
				<linearGradient id="SVGID_00000175302109780393680370000012849899166954939833_" gradientUnits="userSpaceOnUse" x1="2563.0173" y1="1491.2317" x2="2651.2783" y2="1491.2317">
				<stop  offset="0" style="stop-color:#9CFFFB"/>
				<stop  offset="1" style="stop-color:#9BFFFA"/>
			</linearGradient>
			<path style="fill:url(#SVGID_00000175302109780393680370000012849899166954939833_);" d="M2649.162,1509.921h-84.029
				c-1.169,0-2.116-0.948-2.116-2.116v-33.146c0-1.169,0.948-2.116,2.116-2.116h84.029c1.169,0,2.116,0.948,2.116,2.116v33.146
				C2651.278,1508.974,2650.331,1509.921,2649.162,1509.921z"/>
			<path style="fill:#91B3FA;" d="M2577.184,2996.218H1416.615c-4.234,0-7.668-3.433-7.668-7.668l0,0
				c0-4.235,3.433-7.667,19.524-7.667h1160.569c-7.622,0-4.189,3.433-4.189,7.667l0,0
				C2584.852,2992.785,2581.419,2996.218,2577.184,2996.218z"/>
			<g>
				
					<linearGradient id="SVGID_00000049939549842828808930000011061763184888010399_" gradientUnits="userSpaceOnUse" x1="1548.6545" y1="2339.7358" x2="2445.0442" y2="2339.7358">
					<stop  offset="0" style="stop-color:#DAE3FE"/>
					<stop  offset="1" style="stop-color:#E9EFFD"/>
				</linearGradient>
				
					<circle style="fill:url(#SVGID_00000049939549842828808930000011061763184888010399_);" cx="1996.849" cy="2339.736" r="448.195"/>
				
					<linearGradient id="SVGID_00000152959424571888982660000002947636547334811056_" gradientUnits="userSpaceOnUse" x1="2453.9956" y1="2075.2781" x2="1739.214" y2="2485.8076">
					<stop  offset="0" style="stop-color:#09005D"/>
					<stop  offset="1" style="stop-color:#1A0F91"/>
				</linearGradient>
				
					<circle style="fill:url(#SVGID_00000152959424571888982660000002947636547334811056_);" cx="2001.311" cy="2335.274" r="364.357"/>
				
					<linearGradient id="SVGID_00000077318942497109538560000005263755657993601957_" gradientUnits="userSpaceOnUse" x1="1657.9633" y1="2335.2742" x2="2344.6589" y2="2335.2742">
					<stop  offset="0" style="stop-color:#09005D"/>
					<stop  offset="1" style="stop-color:#1A0F91"/>
				</linearGradient>
				
					<circle style="fill:url(#SVGID_00000077318942497109538560000005263755657993601957_);" cx="2001.311" cy="2335.274" r="343.348"/>
				
					<linearGradient id="SVGID_00000183241718926854600770000002639064738663228095_" gradientUnits="userSpaceOnUse" x1="1940.8323" y1="2403.5774" x2="2805.657" y2="2001.3812">
					<stop  offset="0" style="stop-color:#09005D"/>
					<stop  offset="1" style="stop-color:#1A0F91"/>
				</linearGradient>
				<path style="fill:url(#SVGID_00000183241718926854600770000002639064738663228095_);" d="M2134.385,2049.484
					c-27.346-15.466-62.283-12.122-84.306,10.284c-35.004,35.611-72.732,98.591-31.915,185.891
					c61.452,131.435,49.378,341.898-77.955,397.664c0,0,308.573,35.299,368.057-261.966
					C2347.031,2187.632,2202.515,2088.017,2134.385,2049.484z"/>
			</g>
			<path style="fill:#BDD0FB;" d="M1945.16,2073.994c0,0-1.839,0.089-5.405,0.262c-3.384,0.39-8.531,1.002-14.976,2.996
				c-6.423,1.991-14.101,5.286-22.539,10.279c-8.405,5.065-17.516,11.84-27.045,20.313c-4.602,4.189-9.79,8.93-14.754,13.852
				c-2.466,2.493-4.992,5.045-7.571,7.652c-2.497,2.71-5.047,5.48-7.649,8.307c-10.322,11.383-20.854,24.264-30.92,38.839
				c-20.021,29.1-38.699,65.1-48.673,107.244c-1.12,5.282-2.545,10.559-3.331,16.014c-0.462,2.713-0.925,5.44-1.391,8.179
				l-0.175,1.028c-0.055,0.351-0.024,0.095-0.047,0.319l-0.061,0.533l-0.241,2.132l-0.484,4.28
				c-0.296,2.844-0.708,5.767-0.915,8.585c-0.151,2.781-0.301,5.575-0.452,8.381c-0.463,5.565-0.196,11.392-0.256,17.171
				c0.327,23.195,4.051,47.114,11.119,70.674c0.774,2.981,1.872,5.865,2.897,8.786c1.051,2.91,2.018,5.864,3.143,8.764
				c1.211,2.867,2.427,5.742,3.646,8.627c0.62,1.436,1.19,2.901,1.854,4.322l2.1,4.22c1.406,2.816,2.816,5.64,4.229,8.472
				c1.574,2.744,3.153,5.496,4.734,8.255l2.393,4.136l2.649,3.987c1.775,2.658,3.556,5.323,5.34,7.996
				c3.99,5.023,7.612,10.406,12.068,15.125c2.17,2.404,4.233,4.925,6.501,7.259c2.322,2.28,4.65,4.566,6.984,6.857l1.749,1.723
				l0.437,0.431c0.176,0.177-0.008,0.018,0.301,0.282l0.967,0.834l3.871,3.341l3.878,3.323l3.852,2.953
				c2.554,1.985,5.115,3.977,7.918,5.81c2.759,1.848,5.424,3.849,8.323,5.513c45.177,28.504,103.306,39.858,158.591,29.111
				c55.425-10.569,107.483-41.812,144.645-85.683c18.345-21.808,33.062-47.151,41.513-74.198
				c8.491-27.011,10.423-55.916,3.909-83.004c-6.406-26.972-20.656-51.944-39.581-71.738c-18.99-19.888-42.517-34.604-68.325-42.309
				c-25.3-7.653-52.543-8.867-77.935-4.407c-25.467,4.411-49.513,13.988-69.967,27.734c-20.455,13.686-37.492,31.45-48.572,51.608
				c-5.499,10.089-9.576,20.691-11.7,31.566c-2.233,10.724-2.298,21.728-0.923,32.229c2.877,20.999,12.709,40.234,27.507,52.489
				c14.668,12.508,33.668,17.232,50.852,16.723c34.68-1.048,63.634-23.118,69.091-47.244c2.592-11.749-0.444-23.462-6.449-30.542
				c-6.082-7.408-14.435-9.372-20.862-9.166c-6.514,0.26-11.059,2.754-13.598,4.763c-1.247,1.067-2.152,1.928-2.652,2.599
				c-0.541,0.636-0.816,0.959-0.816,0.959l-0.138,0.162c-0.591,0.695-1.634,0.78-2.33,0.188c-0.683-0.581-0.776-1.602-0.215-2.298
				c0,0,0.313-0.388,0.929-1.15c0.58-0.796,1.611-1.839,3.055-3.118c2.932-2.432,8.167-5.415,15.581-5.858
				c3.672-0.214,7.84,0.215,12.139,1.739c1.096,0.322,2.128,0.89,3.225,1.36c1.046,0.566,2.267,1.236,3.216,1.907l1.422,1.031
				c0.654,0.479,1.004,0.862,1.527,1.304c1.002,0.826,1.854,1.836,2.783,2.805c7.073,8.144,10.732,20.905,8.041,34.504
				c-2.724,13.38-12.147,26.31-25.127,35.735c-12.991,9.451-29.923,15.978-48.577,16.809c-9.304,0.423-19.019-0.56-28.598-3.34
				c-2.417-0.61-4.734-1.62-7.133-2.428c-2.348-0.952-4.647-2.062-6.987-3.152c-2.241-1.312-4.736-2.578-6.797-3.992l-3.078-2.133
				c-0.573-0.416-0.902-0.583-1.677-1.203l-1.524-1.269c-8.185-6.707-15.3-15.19-20.488-24.97
				c-5.185-9.766-8.906-20.602-10.601-32.001c-1.673-11.385-1.792-23.296,0.479-35.177c2.129-11.771,6.341-23.394,12.147-34.307
				c11.737-21.824,29.677-40.806,51.179-55.5c21.517-14.753,46.82-25.12,73.762-30.049c26.977-4.935,55.588-4.083,83.364,4.032
				c54.979,15.751,102.491,62.905,117.223,122.065c7.464,29.457,5.33,61.119-3.7,90.099c-9.04,29.136-24.461,55.868-43.985,79.234
				c-38.95,46.229-93.644,79.424-152.498,90.851c-58.891,11.611-120.778-0.209-169.323-30.599c-3.107-1.781-5.986-3.91-8.953-5.889
				c-2.97-1.933-5.848-4.14-8.713-6.36l-4.299-3.3l-3.915-3.334l-3.883-3.327l-0.968-0.831c0,0-0.518-0.452-0.64-0.58l-0.474-0.462
				l-1.893-1.846c-2.521-2.463-5.034-4.917-7.544-7.369c-2.448-2.505-4.683-5.198-7.022-7.78
				c-4.798-5.079-8.723-10.813-13.007-16.211c-15.926-22.48-27.727-47.051-35.083-72.097c-7.346-25.039-11.284-50.348-11.33-74.879
				c0.143-6.146-0.045-12.167,0.533-18.294c0.214-3.045,0.427-6.076,0.64-9.094c0.266-2.97,0.704-5.775,1.044-8.65l0.546-4.272
				l0.27-2.129l0.068-0.531c0.013-0.132,0.112-0.739,0.112-0.739l0.199-1.078c0.529-2.875,1.056-5.735,1.58-8.582
				c0.915-5.721,2.472-11.241,3.732-16.764c5.512-21.992,13.551-42.258,22.722-60.646c9.205-18.385,19.487-34.999,30.392-49.647
				c10.862-14.684,22.095-27.567,33.056-38.877c2.8-2.775,5.487-5.531,8.214-8.155c2.787-2.574,5.513-5.092,8.177-7.553
				c5.393-4.879,10.452-9.099,15.591-13.375c10.151-8.243,19.914-14.861,28.925-19.754c9.04-4.855,17.316-7.941,24.234-9.589
				c6.912-1.691,12.392-2.026,16.116-2.213c3.58,0.041,5.428,0.063,5.428,0.063c0.916,0.01,1.65,0.762,1.639,1.677
				C1946.739,2073.237,1946.028,2073.95,1945.16,2073.994z"/>
		</g>
		<g>
			
				<linearGradient id="SVGID_00000141439014588640616770000005811499231612232081_" gradientUnits="userSpaceOnUse" x1="-5134.2822" y1="1247.6832" x2="-5219.8838" y2="2085.8579" gradientTransform="matrix(-1 0 0 1 -2180.7881 0)">
				<stop  offset="0" style="stop-color:#FEBBBA"/>
				<stop  offset="1" style="stop-color:#FF928E"/>
			</linearGradient>
			<path style="fill:url(#SVGID_00000141439014588640616770000005811499231612232081_);" d="M3006.627,1903.845
				c14.072-37.413,20.146-81.911,10.888-133.804c56.819-9.889,109.832-30.151,156.346-62.404
				c5.53,79.866-15.677,168.059-89.219,255.532l0,0c-35.703,42.465-83.727,84.761-147.021,125.85l-18.644,39.801l-56.011-69.767
				C2862.966,2059.053,2966.764,2009.821,3006.627,1903.845z"/>
			<g>
				
					<linearGradient id="SVGID_00000183945070693232559490000015498097353366852286_" gradientUnits="userSpaceOnUse" x1="-4477.6851" y1="1578.8879" x2="-4570.5361" y2="2488.0481" gradientTransform="matrix(-1 0 0 1 -2180.7881 0)">
					<stop  offset="0" style="stop-color:#FEBBBA"/>
					<stop  offset="1" style="stop-color:#FF928E"/>
				</linearGradient>
				<path style="fill:url(#SVGID_00000183945070693232559490000015498097353366852286_);" d="M2218.619,1556.309
					c57.421,10.056,107.684,2.545,152.095-13.928c1.17,9.865,2.835,19.781,5.138,29.761c9.704,43.666,23.068,85.958,41.807,124.944
					c-86.042,12.721-163.745-12.242-221.673-42.031C2195.181,1614.65,2206.215,1581.056,2218.619,1556.309z"/>
				<path style="fill:#91B3FA;" d="M2370.714,1542.381c74.598-27.671,132.677-80.638,180.386-118.179
					c100.488-79.073,176.754-38.241,176.754-38.241l-109.483,207.048c-68.385,64.436-136.845,94.634-200.712,104.076
					c-18.739-38.986-32.103-81.278-41.807-124.944C2373.549,1562.162,2371.884,1552.246,2370.714,1542.381z"/>
				
					<linearGradient id="SVGID_00000024720166928904935730000005690781257388240573_" gradientUnits="userSpaceOnUse" x1="-5152.6016" y1="1080.7125" x2="-5876.2339" y2="2006.5363" gradientTransform="matrix(-0.9998 -0.0189 -0.0189 0.9998 -3284.584 -2.4894)">
					<stop  offset="0" style="stop-color:#FEBBBA"/>
					<stop  offset="1" style="stop-color:#FF928E"/>
				</linearGradient>
				<path style="fill:url(#SVGID_00000024720166928904935730000005690781257388240573_);" d="M2003.516,1456.656l50.639,29.549
					c60.645,39.945,115.183,61.475,164.464,70.104c-12.405,24.747-23.439,58.341-22.634,98.746
					c-64.248-33.037-104.184-71.989-104.184-71.989C1977.219,1509.128,2003.516,1456.656,2003.516,1456.656z"/>
			</g>
			<g>
				
					<linearGradient id="SVGID_00000160871080906835102940000002463890301953722283_" gradientUnits="userSpaceOnUse" x1="-3152.0662" y1="2194.6775" x2="-4631.248" y2="2165.8367" gradientTransform="matrix(-1 0 0 1 -2180.7881 0)">
					<stop  offset="0" style="stop-color:#E1473D"/>
					<stop  offset="1" style="stop-color:#E9605A"/>
				</linearGradient>
				<path style="fill:url(#SVGID_00000160871080906835102940000002463890301953722283_);" d="M2579.992,2900.721
					c-0.753-3.907-1.593-7.801-2.513-11.671l-413.24-1735.154l-176.871,34.135l262.143,1764.316
					c0.584,3.934,1.256,7.861,2.01,11.768l11.392,59.02c19.545,101.278,90.747,172.694,159.035,159.516l81.183-15.668
					c68.289-13.18,107.8-105.963,88.254-207.241L2579.992,2900.721z M2441.509,3065.843c-45.308,8.745-93.967-45.981-108.684-122.23
					c-14.717-76.25,10.084-145.152,55.392-153.898c45.307-8.742,93.965,45.983,108.68,122.232
					C2511.614,2988.197,2486.816,3057.098,2441.509,3065.843z"/>
				
					<linearGradient id="SVGID_00000182518689903417212380000012460302806721563829_" gradientUnits="userSpaceOnUse" x1="-3659.6406" y1="1717.942" x2="-4561.9067" y2="276.5179" gradientTransform="matrix(-1 0 0 1 -2180.7881 0)">
					<stop  offset="0" style="stop-color:#E1473D"/>
					<stop  offset="1" style="stop-color:#E9605A"/>
				</linearGradient>
				<path style="fill:url(#SVGID_00000182518689903417212380000012460302806721563829_);" d="M2228.99,473.541
					c-45.328-26.701-100.942,13.533-90.974,65.188l66.094,342.462c4.707,24.383-2.172,49.569-18.619,68.177l-84.304,95.379
					c-24.064,27.225-63.447,34.825-95.914,18.511l-113.741-57.158c-22.189-11.151-37.948-31.969-42.653-56.352l-66.094-342.461
					c-9.969-51.654-76.563-68.305-108.697-26.651c-76.876,99.646-112.165,232.916-85.867,369.174
					c47.531,246.279,272.264,378.635,509.151,332.917c236.888-45.718,396.227-252.199,348.696-498.476
					C2419.771,647.992,2337.426,537.424,2228.99,473.541z"/>
				
					<linearGradient id="SVGID_00000018925000180981276560000007886888006076948157_" gradientUnits="userSpaceOnUse" x1="1956.2738" y1="501.8284" x2="2155.2295" y2="3088.2554">
					<stop  offset="0" style="stop-color:#FF928E"/>
					<stop  offset="1" style="stop-color:#FE7062"/>
				</linearGradient>
				<path style="fill:url(#SVGID_00000018925000180981276560000007886888006076948157_);" d="M2196.713,479.772
					c-45.328-26.704-100.942,13.532-90.971,65.187l66.093,342.461c4.706,24.383-2.172,49.57-18.618,68.176l-84.307,95.381
					c-24.063,27.226-63.445,34.826-95.911,18.51l-113.743-57.158c-22.189-11.15-37.946-31.969-42.652-56.35l-66.094-342.462
					c-9.969-51.656-76.561-68.305-108.697-26.653c-76.875,99.648-112.163,232.917-85.866,369.176
					c47.531,246.279,272.264,378.634,509.151,332.917c236.887-45.719,396.227-252.198,348.696-498.478
					C2387.497,654.22,2305.15,543.653,2196.713,479.772z"/>
				
					<linearGradient id="SVGID_00000135652014661153384690000006213141928445030847_" gradientUnits="userSpaceOnUse" x1="2142.1282" y1="487.5316" x2="2341.0837" y2="3073.958">
					<stop  offset="0" style="stop-color:#FF928E"/>
					<stop  offset="1" style="stop-color:#FE7062"/>
				</linearGradient>
				<path style="fill:url(#SVGID_00000135652014661153384690000006213141928445030847_);" d="M2554.247,2905.689
					c-0.754-3.907-1.594-7.8-2.514-11.67l-413.24-1735.154L1961.624,1193l262.142,1764.315c0.584,3.934,1.256,7.861,2.01,11.767
					l11.391,59.021c19.546,101.278,90.747,172.694,159.036,159.516l81.184-15.668c68.286-13.179,107.798-105.962,88.252-207.241
					L2554.247,2905.689z M2415.763,3070.812c-45.307,8.743-93.966-45.981-108.683-122.23
					c-14.716-76.252,10.085-145.152,55.391-153.897c45.308-8.744,93.967,45.981,108.681,122.231
					C2485.869,2993.166,2461.071,3062.067,2415.763,3070.812z"/>
			</g>
			
				<linearGradient id="SVGID_00000175297099026511341550000004066991311206015415_" gradientUnits="userSpaceOnUse" x1="2277.2393" y1="1465.6807" x2="2622.1135" y2="1326.4047">
				<stop  offset="0" style="stop-color:#FEBBBA"/>
				<stop  offset="1" style="stop-color:#FF928E"/>
			</linearGradient>
			<path style="fill:url(#SVGID_00000175297099026511341550000004066991311206015415_);" d="M1996.913,1533.034
				c-1.883-11.063,1.352-22.294,8.691-30.785c14.222-16.452,38.794-38.994,56.617-23.8c26.543,22.628-2.542,100.015-2.542,100.015
				l-29.428,44.942l-0.415,28.683C2013.916,1633.448,2004.395,1587.588,1996.913,1533.034z"/>
			
				<linearGradient id="SVGID_00000110446911309155655620000002978179436260354195_" gradientUnits="userSpaceOnUse" x1="2675.3391" y1="3144.1887" x2="2840.6538" y2="3144.1887">
				<stop  offset="0" style="stop-color:#4F52FF"/>
				<stop  offset="1" style="stop-color:#4042E2"/>
			</linearGradient>
			<path style="fill:url(#SVGID_00000110446911309155655620000002978179436260354195_);" d="M2675.339,3200.771
				c0.003-1.228,0.108-2.47,0.448-3.717c19.953-73.238,112.945-117.337,112.945-117.337l36.455,3.552
				c19.766,65.259,16.317,104.989,12.611,122.643c-0.102,0.496-0.262,0.964-0.403,1.442
				C2807.228,3209.476,2745.209,3210.063,2675.339,3200.771z"/>
			
				<linearGradient id="SVGID_00000133498207237161540490000002508956600453142717_" gradientUnits="userSpaceOnUse" x1="-5332.8218" y1="2669.7805" x2="-5332.8218" y2="2958.2798" gradientTransform="matrix(-0.9998 -0.0189 -0.0189 0.9998 -2516.9521 12.0052)">
				<stop  offset="0" style="stop-color:#09005D"/>
				<stop  offset="1" style="stop-color:#1A0F91"/>
			</linearGradient>
			<path style="fill:url(#SVGID_00000133498207237161540490000002508956600453142717_);" d="M2837.394,3207.354
				c-1.738,5.886-6.193,10.411-11.807,11.481c-43.009,8.2-110.96-0.335-139.477-4.614c-6.292-0.943-10.792-6.863-10.771-13.45
				C2745.209,3210.063,2807.228,3209.476,2837.394,3207.354z"/>
			
				<linearGradient id="SVGID_00000052072363394246873170000014479037396371487145_" gradientUnits="userSpaceOnUse" x1="-5370.7383" y1="2843.7661" x2="-5402.2256" y2="3118.5681" gradientTransform="matrix(-0.9998 -0.0189 -0.0189 0.9998 -2516.9521 12.0052)">
				<stop  offset="0" style="stop-color:#FEBBBA"/>
				<stop  offset="1" style="stop-color:#FF928E"/>
			</linearGradient>
			<path style="fill:url(#SVGID_00000052072363394246873170000014479037396371487145_);" d="M2840.892,3029.17l-16.868,74.143
				c-1.236,5.432-5.505,9.438-10.589,9.819c-6.225,0.466-15.076,0.641-23.948-0.834c-7.955-1.323-13.356-9.533-11.778-18.206
				l11.995-65.888L2840.892,3029.17z"/>
			
				<linearGradient id="SVGID_00000059285745786186178290000011732713496722586278_" gradientUnits="userSpaceOnUse" x1="-5046.4253" y1="2669.7795" x2="-5046.4253" y2="2958.28" gradientTransform="matrix(-0.9998 -0.0189 -0.0189 0.9998 -2516.9521 12.0052)">
				<stop  offset="0" style="stop-color:#09005D"/>
				<stop  offset="1" style="stop-color:#1A0F91"/>
			</linearGradient>
			<path style="fill:url(#SVGID_00000059285745786186178290000011732713496722586278_);" d="M2517.179,3200.561
				c40.341-0.369,61.285-4.722,72.148-8.927c-0.049,4.01-0.149,8.09-0.36,12.315c-0.223,4.511-3.635,8.055-7.75,7.951l-221.353-5.61
				c-7.064-0.179-11.038-8.45-7.854-14.87C2380.992,3194.365,2454.818,3201.128,2517.179,3200.561z"/>
			
				<linearGradient id="SVGID_00000003086842877865695940000002428751756453516708_" gradientUnits="userSpaceOnUse" x1="2352.0107" y1="3143.8103" x2="2589.3547" y2="3143.8103">
				<stop  offset="0" style="stop-color:#4F52FF"/>
				<stop  offset="1" style="stop-color:#4042E2"/>
			</linearGradient>
			<path style="fill:url(#SVGID_00000003086842877865695940000002428751756453516708_);" d="M2352.011,3191.42
				c0.278-0.56,0.518-1.129,0.908-1.653c20.066-26.948,70.89-80.406,169.73-102.141l47.232-0.6c0,0,20.328,36.931,19.446,104.608
				c-10.864,4.204-31.808,8.558-72.148,8.927C2454.818,3201.128,2380.992,3194.365,2352.011,3191.42z"/>
			
				<linearGradient id="SVGID_00000018228237622699041320000015730737211568337598_" gradientUnits="userSpaceOnUse" x1="-5114.2515" y1="2873.1628" x2="-5145.7383" y2="3147.9587" gradientTransform="matrix(-0.9998 -0.0189 -0.0189 0.9998 -2516.9521 12.0052)">
				<stop  offset="0" style="stop-color:#FEBBBA"/>
				<stop  offset="1" style="stop-color:#FF928E"/>
			</linearGradient>
			<path style="fill:url(#SVGID_00000018228237622699041320000015730737211568337598_);" d="M2579.983,3015.654
				c-0.59,3.51-8.071,56.863-10.967,77.551c-0.688,4.914-4.328,8.662-8.838,9.113c-8.056,0.809-21.08,1.438-32.414-1.11
				c-6.115-1.376-10.448-7.355-10.318-14.214l1.585-83.942L2579.983,3015.654z"/>
			
				<linearGradient id="SVGID_00000033344686331713178370000015550460449711554749_" gradientUnits="userSpaceOnUse" x1="8710.0039" y1="-13243.6611" x2="7303.9761" y2="-11665.1982" gradientTransform="matrix(-0.9998 -0.0189 -0.0189 0.9998 -2516.9521 12.0052)">
				<stop  offset="0" style="stop-color:#09005D"/>
				<stop  offset="1" style="stop-color:#1A0F91"/>
			</linearGradient>
			<path style="fill:url(#SVGID_00000033344686331713178370000015550460449711554749_);" d="M2640.578,2010.853
				c0,0-131.215,544.708-139.438,1089.224c-0.149,9.927,75.783,18.686,77.521,9.544c17.731-93.316,134.62-701.115,188.431-785.749
				c0,0-1.214,535.671-16.793,779.156c-0.387,6.054,68.482,25.89,82.864,10.436c0.001,0.005,97.053-592.845,101.032-964.885
				c0.205-19.161-34.378-137.726-34.378-137.726H2640.578z"/>
			
				<linearGradient id="SVGID_00000170260563182311007280000011816233270218270910_" gradientUnits="userSpaceOnUse" x1="-4725.377" y1="1430.174" x2="-4727.417" y2="1450.1514" gradientTransform="matrix(-1 0 0 1 -2180.7881 0)">
				<stop  offset="0" style="stop-color:#FDF53F"/>
				<stop  offset="0.6645" style="stop-color:#E57A58"/>
				<stop  offset="1" style="stop-color:#D93C65"/>
			</linearGradient>
			<path style="fill:url(#SVGID_00000170260563182311007280000011816233270218270910_);" d="M2543.506,1431.406
				C2551.624,1421.005,2541.392,1452.54,2543.506,1431.406L2543.506,1431.406z"/>
			<path style="fill:#91B3FA;" d="M2543.506,1431.406c0.197-1.966,0.497-4.375,0.932-7.33
				c143.547-99.521,355.821-43.767,438.112-31.819c26.983,3.918,51.467,17.719,68.902,38.683
				c41.923,50.409,113.892,153.672,122.409,276.698c-46.514,32.253-99.526,52.515-156.346,62.404
				c-4.736-26.551-13.476-55.033-27.233-85.503c-1.579,7.045-3.5,14.012-5.803,20.862
				c-61.832,183.728-94.085,288.642-94.624,324.092c-0.072,4.813-283.231-6.916-233.08-8.383
				c20.956-0.613-97.623-418.905-159.581-493.143C2493.514,1523.557,2551.624,1421.005,2543.506,1431.406z"/>
			
				<linearGradient id="SVGID_00000103962485494055516390000012482618924974815631_" gradientUnits="userSpaceOnUse" x1="-5301.1396" y1="1087.056" x2="-5421.3633" y2="1606.593" gradientTransform="matrix(-0.9998 -0.0189 -0.0189 0.9998 -2516.9521 12.0052)">
				<stop  offset="0" style="stop-color:#FEBBBA"/>
				<stop  offset="1" style="stop-color:#FF928E"/>
			</linearGradient>
			<path style="fill:url(#SVGID_00000103962485494055516390000012482618924974815631_);" d="M2852.642,1241.2l11.943,151.472
				c0,0-85.539,24.012-146.575-20.805l46.082-136.59L2852.642,1241.2z"/>
			<g>
				
					<linearGradient id="SVGID_00000129916409477060115100000003882854643312702384_" gradientUnits="userSpaceOnUse" x1="2768.6104" y1="1111.3058" x2="2771.9268" y2="700.1104">
					<stop  offset="0" style="stop-color:#FEBBBA"/>
					<stop  offset="1" style="stop-color:#FF928E"/>
				</linearGradient>
				<path style="fill:url(#SVGID_00000129916409477060115100000003882854643312702384_);" d="M2757.203,1067.012
					c-2.084,1.889-89.558,165.933-89.558,165.933l94.729,47.955l106.007-143.163
					C2868.381,1137.738,2792.083,1035.4,2757.203,1067.012z"/>
				
					<linearGradient id="SVGID_00000063610698341392040150000007277400334875011772_" gradientUnits="userSpaceOnUse" x1="2640.1628" y1="1173.2192" x2="2924.2224" y2="1173.2192">
					<stop  offset="0" style="stop-color:#4F52FF"/>
					<stop  offset="1" style="stop-color:#4042E2"/>
				</linearGradient>
				<path style="fill:url(#SVGID_00000063610698341392040150000007277400334875011772_);" d="M2789.048,1102.131
					c21.248,3.115,32.489,26.585,36.96,38.826c1.621,4.444,1.109,9.361-1.401,13.371l-49.18,78.582
					c-0.748,1.192-1.629,2.265-2.677,3.205c-5.775,5.176-25.485,20.174-40.103-1.03c-12.46-18.073-24.159-34.51-36.898-41.439
					c-7.438-4.047-16.742-1.104-20.699,6.383c-8.15,15.422-23.965,46.874-34.094,76.789c-2.538,7.498,1.203,15.671,8.482,18.781
					c19.209,8.209,57.2,23.114,91.063,28.44c5.562,0.876,11.129-1.374,14.533-5.858c14.983-19.734,57.208-74.877,71.523-88.608
					c13.299-12.758,37.299-7.4,48.096-4.075c4.099,1.263,8.497,0.775,12.211-1.368c11.14-6.426,30.674-22.585,13.618-50.886
					c-4.24-7.037-1.837-16.259,5.112-20.644c12.449-7.857,26.081-22.789,13.83-47.621c-15.473-31.36-59.333-28.406-83.945-51.508
					c-12.131-11.387-24.054-24.061-39.813-29.4c-3.381-1.146-6.924-1.931-10.493-1.859c-15.484,0.313-38.929,25.831-39.984,41.245
					C2743.685,1085.467,2770.544,1099.418,2789.048,1102.131z"/>
				
					<linearGradient id="SVGID_00000137822867962757064650000016692086145319325062_" gradientUnits="userSpaceOnUse" x1="-4643.6289" y1="-4862.6816" x2="-4472.5503" y2="-5038.2036" gradientTransform="matrix(-0.6715 -0.7409 -0.7409 0.6715 -3892.3462 1305.1805)">
					<stop  offset="0" style="stop-color:#FEBBBA"/>
					<stop  offset="1" style="stop-color:#FF928E"/>
				</linearGradient>
				<path style="fill:url(#SVGID_00000137822867962757064650000016692086145319325062_);" d="M2808.098,1258.426
					c0,0,19.355-53.321,42.797-50.908c23.441,2.412,41.478,26.151,11.885,51.895
					C2825.968,1291.435,2808.098,1258.426,2808.098,1258.426z"/>
			</g>
			<path style="fill:#91B3FA;" d="M2998.288,1670.861c32.546-84.109,23.25-186.591,23.152-187.616l-8.545,0.813
				c0.094,1.006,9.188,101.522-22.617,183.703L2998.288,1670.861z"/>
			
				<linearGradient id="SVGID_00000059991009697686805490000014399324948884790958_" gradientUnits="userSpaceOnUse" x1="-4151.7588" y1="1197.845" x2="-4909.8906" y2="2161.9927" gradientTransform="matrix(-1 0 0 1 -2180.7881 0)">
				<stop  offset="0" style="stop-color:#09005D"/>
				<stop  offset="1" style="stop-color:#1A0F91"/>
			</linearGradient>
			<path style="fill:url(#SVGID_00000059991009697686805490000014399324948884790958_);" d="M2771.485,2312.921
				c1.907,0.036,3.676-1.211,4.212-3.136c10.128-36.236,81.582-74.918,82.301-75.305c2.089-1.12,2.877-3.722,1.754-5.813
				c-1.122-2.089-3.711-2.878-5.813-1.755c-3.071,1.648-75.402,40.807-86.512,80.56c-0.638,2.284,0.697,4.653,2.979,5.29
				C2770.765,2312.865,2771.13,2312.914,2771.485,2312.921z"/>
			
				<linearGradient id="SVGID_00000147926977054681853490000018364718700623915158_" gradientUnits="userSpaceOnUse" x1="8370.7021" y1="-13140.001" x2="6964.6772" y2="-11561.541" gradientTransform="matrix(-1 0 0 1 -2180.7881 0)">
				<stop  offset="0" style="stop-color:#09005D"/>
				<stop  offset="1" style="stop-color:#1A0F91"/>
			</linearGradient>
			<path style="fill:url(#SVGID_00000147926977054681853490000018364718700623915158_);" d="M2976.608,1744.957
				c0.473-2.394-0.018-4.878-1.368-6.911l-105.648-159.169c-0.756-1.139-2.033-1.824-3.4-1.824h-193.426
				c-3.173,0-6.111,1.676-7.725,4.408l-91.93,155.573c-1.595,2.699-2.163,5.884-1.599,8.968
				c36.394,110.502,71.598,219.245,69.067,272.16c65.926,51.503,181.912,40.742,261.093,17.051
				C2905.745,1966.171,2939.713,1857.503,2976.608,1744.957z"/>
			
				<linearGradient id="SVGID_00000107552504430679755380000006853974611876337047_" gradientUnits="userSpaceOnUse" x1="-4974.6582" y1="1191.0836" x2="-5609.1812" y2="3317.1487" gradientTransform="matrix(-1 0 0 1 -2180.7881 0)">
				<stop  offset="0" style="stop-color:#09005D"/>
				<stop  offset="1" style="stop-color:#1A0F91"/>
			</linearGradient>
			<path style="fill:url(#SVGID_00000107552504430679755380000006853974611876337047_);" d="M2939.386,1386.636l-71.005,204.047
				h-42.732l63.141-212.48c0.621-2.09,2.739-3.357,4.874-2.917l44.485,9.17C2939.135,1384.66,2939.717,1385.685,2939.386,1386.636z"
				/>
			
				<linearGradient id="SVGID_00000008866605638877944460000015238575532116962990_" gradientUnits="userSpaceOnUse" x1="-4795.4106" y1="1244.5808" x2="-5429.9297" y2="3370.6338" gradientTransform="matrix(-1 0 0 1 -2180.7881 0)">
				<stop  offset="0" style="stop-color:#09005D"/>
				<stop  offset="1" style="stop-color:#1A0F91"/>
			</linearGradient>
			<path style="fill:url(#SVGID_00000008866605638877944460000015238575532116962990_);" d="M2696.18,1372.284l17.432,212.759
				l-39.435,4.839l-33.566-212.119c-0.243-1.535,0.863-2.956,2.411-3.097l50.502-4.614
				C2694.876,1369.929,2696.069,1370.931,2696.18,1372.284z"/>
			<g>
				
					<linearGradient id="SVGID_00000030489276910193437810000000645939800888824966_" gradientUnits="userSpaceOnUse" x1="7135.2798" y1="964.0549" x2="6481.5151" y2="1687.3699" gradientTransform="matrix(1 0 0 1 -4178.4438 0)">
					<stop  offset="0" style="stop-color:#09005D"/>
					<stop  offset="1" style="stop-color:#1A0F91"/>
				</linearGradient>
				<path style="fill:url(#SVGID_00000030489276910193437810000000645939800888824966_);" d="M2703.094,1077.52
					c84.311-159.254,302.833-14.578,201.134,119.578C2828.614,1146.822,2743.173,1072.084,2703.094,1077.52z"/>
				
					<linearGradient id="SVGID_00000111906172916742534670000011228234993703790740_" gradientUnits="userSpaceOnUse" x1="6058.48" y1="229.6897" x2="6271.7427" y2="229.6897" gradientTransform="matrix(0.9854 0.1702 -0.1702 0.9854 -3301.7998 -177.5386)">
					<stop  offset="0" style="stop-color:#09005D"/>
					<stop  offset="1" style="stop-color:#1A0F91"/>
				</linearGradient>
				<path style="fill:url(#SVGID_00000111906172916742534670000011228234993703790740_);" d="M2708.604,1060.354
					c-170.451-8.676-30.142,54.521,125.089,88.251C2795.053,1107.588,2756.423,1077.016,2708.604,1060.354z"/>
			</g>
		</g>
	</g>
</g>
</svg>
